{"asset":{"generator":"Khronos glTF Blender I/O v3.2.43","version":"2.0"},"scene":0,"scenes":[{"name":"Scene","nodes":[0]}],"nodes":[{"mesh":0,"name":"Ochsenbrücke","rotation":[0.7071068286895752,0,0,0.7071068286895752],"scale":[3.3899998664855957,1,3.3899998664855957]}],"materials":[{"alphaMode":"BLEND","doubleSided":true,"name":"Ochsenbrücke","pbrMetallicRoughness":{"baseColorTexture":{"index":0},"metallicFactor":0,"roughnessFactor":0.5}}],"meshes":[{"name":"Ochsenbrücke","primitives":[{"attributes":{"POSITION":0,"NORMAL":1,"TEXCOORD_0":2},"indices":3,"material":0}]}],"textures":[{"sampler":0,"source":0}],"images":[{"mimeType":"image/png","name":"Ochsenbrücke","uri":"data:application/octet-stream;base64,"}],"accessors":[{"bufferView":0,"componentType":5126,"count":2871,"max":[0.7725733518600464,0,0.5],"min":[-0.7725733518600464,0,-0.46875],"type":"VEC3"},{"bufferView":1,"componentType":5126,"count":2871,"type":"VEC3"},{"bufferView":2,"componentType":5126,"count":2871,"type":"VEC2"},{"bufferView":3,"componentType":5123,"count":15195,"type":"SCALAR"}],"bufferViews":[{"buffer":0,"byteLength":34452,"byteOffset":0},{"buffer":0,"byteLength":34452,"byteOffset":34452},{"buffer":0,"byteLength":22968,"byteOffset":68904},{"buffer":0,"byteLength":30390,"byteOffset":91872}],"samplers":[{"magFilter":9729,"minFilter":9987,"wrapS":33071,"wrapT":33071}],"buffers":[{"byteLength":122264,"uri":"data:application/octet-stream;base64,"}]}