{"asset":{"generator":"Khronos glTF Blender I/O v3.2.43","version":"2.0"},"scene":0,"scenes":[{"name":"Scene","nodes":[0]}],"nodes":[{"mesh":0,"name":"Cube","rotation":[-0.7777032256126404,-0.2116607427597046,0.4390734136104584,0.396978497505188],"translation":[-0.48449692130088806,3.078087568283081,-0.7343510389328003]}],"animations":[{"channels":[{"sampler":0,"target":{"node":0,"path":"translation"}},{"sampler":1,"target":{"node":0,"path":"rotation"}}],"name":"CubeAction","samplers":[{"input":5,"interpolation":"LINEAR","output":6},{"input":7,"interpolation":"LINEAR","output":8}]}],"materials":[{"doubleSided":true,"name":"Material","pbrMetallicRoughness":{"baseColorFactor":[0.8000000715255737,0.019129527732729912,0.06525229662656784,1],"metallicFactor":0,"roughnessFactor":0.4000000059604645}}],"meshes":[{"name":"Cube","primitives":[{"attributes":{"POSITION":0,"NORMAL":1,"TANGENT":2,"TEXCOORD_0":3},"indices":4,"material":0}]}],"accessors":[{"bufferView":0,"componentType":5126,"count":24,"max":[1,1,1],"min":[-1,-1,-1],"type":"VEC3"},{"bufferView":1,"componentType":5126,"count":24,"type":"VEC3"},{"bufferView":2,"componentType":5126,"count":24,"type":"VEC4"},{"bufferView":3,"componentType":5126,"count":24,"type":"VEC2"},{"bufferView":4,"componentType":5123,"count":36,"type":"SCALAR"},{"bufferView":5,"componentType":5126,"count":48,"max":[1.9583333333333333],"min":[0],"type":"SCALAR"},{"bufferView":6,"componentType":5126,"count":48,"type":"VEC3"},{"bufferView":7,"componentType":5126,"count":42,"max":[1.8333333333333333],"min":[0.125],"type":"SCALAR"},{"bufferView":8,"componentType":5126,"count":42,"type":"VEC4"}],"bufferViews":[{"buffer":0,"byteLength":288,"byteOffset":0},{"buffer":0,"byteLength":288,"byteOffset":288},{"buffer":0,"byteLength":384,"byteOffset":576},{"buffer":0,"byteLength":192,"byteOffset":960},{"buffer":0,"byteLength":72,"byteOffset":1152},{"buffer":0,"byteLength":192,"byteOffset":1224},{"buffer":0,"byteLength":576,"byteOffset":1416},{"buffer":0,"byteLength":168,"byteOffset":1992},{"buffer":0,"byteLength":672,"byteOffset":2160}],"buffers":[{"byteLength":2832,"uri":"data:application/octet-stream;base64,"}]}